<?xml version="1.0" encoding="UTF-8" standalone="no"?>
<svg
   xmlns:dc="http://purl.org/dc/elements/1.1/"
   xmlns:cc="http://creativecommons.org/ns#"
   xmlns:rdf="http://www.w3.org/1999/02/22-rdf-syntax-ns#"
   xmlns:svg="http://www.w3.org/2000/svg"
   xmlns="http://www.w3.org/2000/svg"
   xmlns:sodipodi="http://sodipodi.sourceforge.net/DTD/sodipodi-0.dtd"
   xmlns:inkscape="http://www.inkscape.org/namespaces/inkscape"
   inkscape:export-ydpi="96"
   inkscape:export-xdpi="96"
   inkscape:export-filename="/home/bashton/nuttx/nxtestnom/assets/testnom.png"
   width="357.78192"
   height="194.54675"
   viewBox="0 0 94.663133 51.473828"
   version="1.1"
   id="svg8"
   inkscape:version="1.0 (4035a4fb49, 2020-05-01)"
   sodipodi:docname="testnom.svg">
  <defs
     id="defs2">
    <rect
       id="rect52"
       height="90.868614"
       width="150.14326"
       y="16.708551"
       x="52.92625" />
    <rect
       id="rect46"
       height="34.970463"
       width="99.056396"
       y="28.232088"
       x="102.97433" />
  </defs>
  <sodipodi:namedview
     units="px"
     id="base"
     pagecolor="#ffffff"
     bordercolor="#666666"
     borderopacity="1.0"
     inkscape:pageopacity="0.0"
     inkscape:pageshadow="2"
     inkscape:zoom="1.4"
     inkscape:cx="143.84477"
     inkscape:cy="107.61779"
     inkscape:document-units="mm"
     inkscape:current-layer="layer1"
     inkscape:document-rotation="0"
     showgrid="false"
     inkscape:window-width="1600"
     inkscape:window-height="843"
     inkscape:window-x="0"
     inkscape:window-y="20"
     inkscape:window-maximized="1" />
  <metadata
     id="metadata5">
    <rdf:RDF>
      <cc:Work
         rdf:about="">
        <dc:format>image/svg+xml</dc:format>
        <dc:type
           rdf:resource="http://purl.org/dc/dcmitype/StillImage" />
        <dc:title></dc:title>
      </cc:Work>
    </rdf:RDF>
  </metadata>
  <g
     inkscape:label="Layer 1"
     inkscape:groupmode="layer"
     id="layer1"
     transform="translate(-58.46703,-25.429611)">
    <path
       id="path12"
       style="fill:#000000;fill-opacity:1;fill-rule:nonzero;stroke:none;stroke-width:0.0986833"
       d="m 74.462878,27.649886 c -2.838877,-0.112824 -5.623123,1.087093 -7.600532,3.097292 -2.486777,1.833364 -2.850666,5.082463 -4.471825,7.530685 -1.751951,2.720527 -2.067237,6.004801 -2.130086,9.160349 0.01072,3.117285 -0.153315,6.235801 -0.185613,9.346746 0.468636,2.463775 0.852596,5.588987 3.240671,6.955667 1.12942,0.41215 4.217008,2.423282 1.433929,2.702906 -2.010469,0.830604 -3.73157,-2.742408 -5.162843,-0.117939 -1.289913,1.993803 -1.558769,4.851539 -0.31151,6.920657 2.152517,2.449964 5.832274,3.300452 8.921195,2.458968 1.787058,-0.406414 3.696479,-3.272706 0.858135,-3.696121 -0.932129,-0.09755 -2.176332,-0.24973 -0.490918,-0.148254 2.459993,0.06048 5.392262,0.388701 7.146252,-1.758954 0.580088,-1.110206 2.895227,-4.615023 3.453389,-1.705813 0.383208,2.451938 -0.389695,4.928242 -0.758077,7.242454 1.166301,1.900353 3.853238,1.062062 5.709313,1.179304 2.202447,-0.04018 4.761209,-0.157945 6.238395,-2.05424 1.170307,-2.390244 -4.263407,-0.965555 -2.726598,-3.837729 0.08523,-2.068756 0.237094,-4.436677 -0.929644,-6.227413 -1.426718,-1.645505 -2.812226,-3.867372 -5.163605,-4.142223 -2.622907,0.170432 -3.640204,-2.455513 -3.901515,-4.618823 0.274098,-1.062262 -1.293117,-4.342589 -1.691948,-2.287243 0.371352,1.926806 0.723483,4.450228 1.429973,6.299062 1.287049,1.838402 4.20316,1.036204 5.750684,2.699523 1.845165,1.648721 3.501491,3.839183 3.299662,6.467251 0.471245,1.429049 -1.315857,4.553997 0.920782,4.639707 1.437572,-0.23361 2.940687,1.620819 0.813545,1.976366 -2.591301,0.271606 -5.240733,0.522224 -7.810344,0.0011 -1.867758,-0.857794 0.60791,-3.314755 0.119506,-4.897624 0.356053,-1.789366 0.260155,-5.934972 -2.559892,-4.15829 -2.10151,0.863925 -2.412468,3.652478 -4.543929,4.391211 -2.469446,0.228351 -5.184747,-0.680258 -7.522177,0.504786 -2.382921,1.397257 1.892242,1.058653 2.792123,1.384199 1.19951,2.224873 -2.971647,2.168408 -4.381768,1.711664 -2.575794,-0.404057 -4.965453,-2.671124 -4.447274,-5.445989 -0.20687,-2.074328 1.037562,-3.308519 2.744269,-1.812823 1.789473,-0.130848 3.886483,-0.503515 5.180872,-1.944406 0.819163,-0.731426 -1.373655,-0.424481 -1.308004,-1.38186 -2.316648,-0.990581 -4.156664,-2.840005 -4.59714,-5.384817 -1.098933,-3.118296 -0.185403,-6.405986 -0.362133,-9.616521 0.0037,-4.035473 0.09925,-8.368813 2.46732,-11.81901 1.360187,-2.390477 1.95006,-5.294615 4.217699,-7.072058 2.459663,-2.111436 6.209462,-2.199638 9.095239,-0.964241 2.943178,1.546013 5.435233,4.526417 5.359507,7.998238 0.758279,2.143452 -0.28247,4.783578 -2.721356,3.094346 -2.387952,-0.761136 -4.436503,-2.247899 -6.562274,-3.52686 -2.180306,-0.105101 -4.085768,1.451032 -5.474502,2.973376 -1.822503,1.463973 -1.556513,4.473386 1.121769,4.58466 2.474561,0.572899 4.012309,3.145629 6.618465,3.161381 2.631516,-0.05646 1.153145,2.277023 0.585561,3.568068 0.409701,0.244005 0.790828,0.558528 1.057962,0.255666 0.589731,-0.668605 0.85611,-2.679407 1.289926,-3.314473 -0.476013,-2.118747 -3.848302,-1.115014 -5.050529,-2.936213 -1.580314,-1.589161 -5.703086,-1.173994 -5.169197,-4.288766 0.792093,-1.863057 3.018121,-4.259189 5.055325,-2.382499 2.383902,1.711475 5.188271,3.259644 8.210068,3.282852 3.066994,0.04273 2.943937,-3.682857 2.543111,-5.828749 -0.536059,-3.120013 -2.916884,-5.626151 -5.498924,-7.272573 -1.258014,-0.687205 -2.706929,-1.03381 -4.14049,-0.945979 z m -3.909367,10.19735 c -0.388324,0.197445 -0.492772,0.250553 0,0 z m -10.524432,28.146358 -0.105384,0.06626 z m 18.996557,0.40148 c -0.209552,0.121941 -0.189636,0.110353 0,0 z m -12.972435,0.09213 -0.155984,0.08278 z m 11.739856,0.608485 c -0.01897,0.114165 -0.197591,-0.03919 0,0 z m -11.652545,4.523633 0.05185,0.03256 z"
       sodipodi:nodetypes="ccccccccccccccccccccccccccccccccccccccccccccccccccsccccccccccccccccccccccc" />
    <path
       id="path74"
       style="fill:#000000;fill-opacity:1;fill-rule:nonzero;stroke:none;stroke-width:0.0986833"
       d="m 67.675938,41.875814 c 0.320531,-0.114176 0.800477,-0.273548 0.851624,0.226766 0.195379,0.410336 0.438217,0.93355 0.956776,0.965935 0.510211,0.102295 0.929607,-0.293209 1.355723,-0.505517 0.173391,-0.103438 0.513472,-0.305133 0.15138,-0.09353 -0.198777,0.115363 -0.70164,0.406879 -0.243974,0.141929 0.154787,-0.08737 0.529039,-0.310168 0.543095,-0.309159 -0.196934,0.11337 -0.544252,0.32971 -0.658618,0.377361 0.32399,-0.240207 0.706122,-0.375839 1.008549,-0.639017 0.330852,-0.203335 -0.437807,0.263854 -0.600335,0.355112 -0.426295,0.123461 0.271867,0.170056 0.256138,0.477089 0.188399,0.426784 0.317814,0.899942 0.281463,1.368604 0.338155,0.06105 0.747816,-0.167253 1.099223,-0.272038 0.397099,-0.273062 0.779873,0.08255 0.826199,0.495277 -0.0068,0.35503 -0.07819,0.974205 0.382088,1.03965 0.572703,-0.05936 1.10991,-0.501494 1.698775,-0.313607 0.393565,0.20321 0.401244,0.746823 0.414121,1.129358 -0.247551,0.548209 0.458167,0.354833 0.75208,0.338969 0.405241,-0.03297 0.43406,0.504575 0.448945,0.652698 0.252298,-0.121855 0.504597,-0.243711 0.756896,-0.365567 0.126281,-0.441758 -0.266747,-0.897008 -0.721162,-0.795965 -0.232021,0.0098 -0.662079,0.17754 -0.440558,-0.227538 -0.0094,-0.351622 -0.06579,-0.731836 -0.253013,-1.034483 -0.316221,-0.410696 -0.917786,-0.26661 -1.325687,-0.09494 -0.336978,0.1526 -0.95245,0.382173 -0.928491,-0.213685 0.04438,-0.419082 -0.03655,-0.856267 -0.363792,-1.152965 -0.285827,-0.217825 -0.642217,0.07096 -0.935888,0.147313 -0.180828,0.03727 -0.609522,0.160308 -0.609435,0.212233 -0.01107,-0.405935 -0.09213,-0.81976 -0.25115,-1.193974 -0.09336,-0.323608 -0.453013,-0.805031 -0.807737,-0.522294 -0.220519,0.08302 -0.653772,0.374587 -0.662866,0.435647 0.207093,-0.11798 0.529559,-0.307448 0.662786,-0.381729 -0.259119,0.152252 -0.722897,0.426437 -0.855718,0.503075 0.214282,-0.128647 0.740921,-0.435673 0.777525,-0.46441 -0.337423,0.196716 -0.675994,0.391543 -1.010899,0.592526 0.200499,-0.115145 0.748214,-0.424714 0.726759,-0.4242 -0.361115,0.268588 -0.962452,0.365496 -1.271305,-0.02087 -0.398741,-0.274296 -0.305465,-1.123744 -0.883425,-1.082516 -0.22932,0.0478 -0.462945,0.09177 -0.631367,0.266402 -0.164897,0.127345 -0.329885,0.25473 -0.494725,0.382051 z" />
    <path
       id="path76"
       style="fill:#000000;fill-opacity:1;fill-rule:nonzero;stroke:none;stroke-width:0.100054"
       d="m 71.319309,37.98867 c 0.159783,0.503114 0.336555,1.0739 0.821633,1.356896 0.409562,0.158195 0.912697,-0.03635 1.227175,-0.106773 0.219079,0.460971 -0.0031,1.017701 0.256415,1.478907 0.200733,0.499693 0.782931,0.320101 1.183839,0.249603 0.384018,0.0025 1.005579,-0.628473 1.092047,0.06051 0.110431,0.403209 -0.06675,0.845778 0.141251,1.223296 0.301349,0.417566 0.933435,0.30944 1.359317,0.172376 0.524177,-0.287483 1.106788,-0.544848 1.466765,-1.045433 -0.14644,0.176194 -0.594564,0.365646 -0.622317,0.441956 0.385526,0.21183 0.253053,0.915035 0.761031,0.956464 0.673354,-3.05e-4 1.210208,-0.459181 1.780938,-0.751004 0.129723,-0.230379 0.717958,-0.635266 0.680512,-0.624062 -0.167165,0.07988 -0.287192,-0.01871 -0.09386,-0.0886 -0.509418,0.241735 -1.048064,0.567764 -1.37395,1.000819 0.174214,-0.09607 0.760233,-0.421963 0.681224,-0.382875 -0.37646,0.196109 -1.084854,0.637623 -1.297108,0.01841 -0.09946,-0.495632 -0.664336,-1.080431 -1.088361,-0.504015 -0.190277,0.196635 -0.579621,0.621255 -0.644038,0.679071 0.190155,-0.102602 0.709133,-0.398601 0.682702,-0.370188 -0.392819,0.249399 -0.901184,0.355374 -1.34686,0.204171 -0.462362,-0.365035 -0.107023,-1.038085 -0.341939,-1.511202 -0.207288,-0.608344 -0.726945,-0.05899 -1.105524,-0.01112 -0.385454,0.03804 -0.998178,0.314147 -1.151559,-0.223692 -0.165571,-0.38384 -0.108665,-0.799593 -0.127832,-1.203422 -0.102844,-0.672596 -0.727549,0.03846 -1.135163,-0.139194 -0.354559,0.03645 -0.585116,-0.275932 -0.737079,-0.55206 -0.202734,-0.21991 -0.111515,-0.743978 -0.428047,-0.758079 -0.195203,0.06514 -0.732263,-0.18698 -0.678071,0.109622 0.01229,0.106541 0.02457,0.213082 0.03686,0.319623 z" />
    <circle
       id="path78"
       style="fill:#000000;stroke:#000000;stroke-width:0.0986833"
       cx="83.810226"
       cy="41.952782"
       r="0.0079046078" />
    <path
       id="path80"
       style="fill:#000000;fill-opacity:1;fill-rule:nonzero;stroke:none;stroke-width:0.0986833"
       d="m 69.002174,39.75125 c 0.488361,0.08372 0.986422,0.127111 1.456124,0.293792 0.588882,0.09798 1.015186,0.545352 1.535302,0.79784 0.342712,0.226512 0.728731,0.397711 0.997559,0.71991 0.31338,0.297931 0.760159,0.361351 1.131097,0.561489 0.375339,0.101178 0.698442,0.327282 0.931738,0.637668 0.219558,0.224956 0.364982,0.626845 0.07164,0.85834 -0.383283,0.239015 0.557786,-0.247518 0.216898,-0.128746 -0.330272,-0.04267 -0.667893,-0.0446 -0.988915,0.06106 -0.353209,0.09088 -0.727044,0.267126 -1.08969,0.111068 -0.391562,-0.06735 -0.832394,-0.150466 -1.069998,-0.506339 -0.205859,-0.224172 -0.268241,-0.583231 -0.595553,-0.676377 -0.518544,-0.194578 -1.079394,-0.203776 -1.621098,-0.275864 -0.47257,-0.148286 -0.875133,-0.464546 -1.226979,-0.805482 -0.162132,-0.08396 -0.350017,-0.398726 -0.533029,-0.231998 -0.101546,0.06686 -0.203091,0.13372 -0.304637,0.20058 0.455911,0.219995 0.746458,0.667615 1.198602,0.895987 0.264623,0.188067 0.581038,0.276847 0.904503,0.268012 0.442178,0.04509 0.904689,0.08421 1.30906,0.280195 0.259699,0.184261 0.321178,0.535528 0.573959,0.737733 0.307248,0.335544 0.790908,0.333436 1.197096,0.455446 0.416363,0.05748 0.794632,-0.189094 1.201126,-0.235641 0.294169,-0.100229 0.617317,0.109136 0.889821,-0.06524 0.272146,-0.142891 0.608873,-0.377724 0.535619,-0.731924 -0.105427,-0.392778 -0.424923,-0.685831 -0.737132,-0.923474 -0.31019,-0.159144 -0.641741,-0.27146 -0.962115,-0.410491 -0.30467,-0.09218 -0.576214,-0.264703 -0.78915,-0.501858 -0.274555,-0.250411 -0.616673,-0.411186 -0.926275,-0.613259 -0.497426,-0.246505 -0.913604,-0.671034 -1.479475,-0.762318 -0.495057,-0.17679 -1.022554,-0.218344 -1.536722,-0.312689 -0.153351,-0.05731 -0.173785,0.16304 -0.257738,0.250524 -0.01054,0.01735 -0.02109,0.0347 -0.03164,0.05205 z" />
    <path
       style="fill:#000000;fill-opacity:1;fill-rule:nonzero;stroke:none;stroke-width:0.0986833"
       id="path82"
       d="m 78.336326,33.990692 c -0.01088,-0.168196 0.017,-0.346104 -0.04931,-0.506816 -0.06109,-0.148044 -0.166383,-0.274161 -0.259179,-0.401595 -0.283611,-0.325325 -0.619606,-0.751167 -1.015829,-0.944792 -0.109678,-0.0536 -0.228054,-0.08718 -0.342081,-0.130765 -0.767899,-0.226888 -1.561443,-0.350101 -2.347027,-0.499427 -0.37818,-0.04307 -0.75389,-0.202772 -1.137977,-0.152661 -0.725601,0.311179 -0.666351,0.485976 -0.317655,1.006758 0.392322,0.499007 0.803455,0.982722 1.201955,1.476883 0.349695,0.42431 0.866097,0.65695 1.378405,0.823725 0.40146,0.114834 0.815625,0.111244 1.225848,0.05872 0.519797,-0.06499 0.935837,-0.318799 1.380764,-0.577285 0.0301,-0.01765 0.120368,-0.07067 0.0903,-0.05296 -0.791099,0.465737 0.0079,-0.0095 0.274465,-0.159931 0,0 -0.458686,0.176304 -0.458686,0.176304 v 0 c -0.03894,0.02348 -0.156017,0.09341 -0.116239,0.07138 0.799256,-0.442609 0.02,-0.02568 -0.241665,0.139752 0.104266,-0.05888 0.209584,-0.115943 0.312799,-0.176651 0.04035,-0.02373 -0.08192,0.04546 -0.124141,0.06569 -0.233129,0.111714 -0.483832,0.185546 -0.738019,0.23 -0.406082,0.05862 -0.81682,0.06388 -1.217232,-0.03949 -0.511429,-0.152764 -1.015818,-0.383003 -1.366448,-0.799125 -0.406216,-0.485135 -0.817732,-0.967042 -1.19756,-1.473204 -0.0942,-0.152285 -0.1444,-0.205242 -0.191328,-0.366474 -0.01219,-0.04189 -0.02141,-0.08543 -0.02188,-0.129059 -4.11e-4,-0.03465 0.05331,-0.109061 0.01937,-0.102119 -0.130931,0.02678 -0.239011,0.120063 -0.362057,0.172215 -0.02993,0.01269 0.05442,-0.03557 0.08163,-0.05336 0.382063,-0.08355 0.770078,0.09017 1.149427,0.123645 0.785451,0.141563 1.579469,0.259041 2.344603,0.490722 0.10922,0.04302 0.222349,0.07721 0.327659,0.129072 0.410651,0.202232 0.716133,0.591221 1.005905,0.930106 0.245629,0.352151 0.302449,0.470308 0.272172,0.894436 0,0 0.439019,-0.223692 0.439019,-0.223692 z" />
    <path
       style="fill:#000000;fill-opacity:1;fill-rule:nonzero;stroke:none;stroke-width:0.104168"
       id="path84"
       d="m 77.6737,32.574265 c -0.209669,-0.0083 -0.411119,0.0086 -0.608398,0.08475 -0.531205,0.247217 -0.709619,0.384985 -0.951027,0.857569 -0.16452,0.311687 -0.266077,0.644201 -0.333342,0.991351 -0.0081,0.05031 -0.01624,0.100621 -0.02436,0.15093 0,0 0.446555,-0.228534 0.446555,-0.228534 v 0 c 0.0077,-0.04936 0.01531,-0.09871 0.02296,-0.148068 0.06752,-0.343634 0.176602,-0.670835 0.34108,-0.978015 0.06827,-0.127674 0.132565,-0.257893 0.232667,-0.362533 0.02998,-0.03134 0.135905,-0.103354 0.09685,-0.08617 -0.02965,0.01305 -0.545212,0.314574 -0.224525,0.127275 0.188568,-0.08741 0.384903,-0.110758 0.590532,-0.09605 0,0 0.411007,-0.312507 0.411007,-0.312507 z" />
    <path
       style="fill:#000000;fill-opacity:1;fill-rule:nonzero;stroke:none;stroke-width:0.105395"
       id="path86"
       d="m 68.649863,29.308133 c -0.314792,-0.459141 -0.69753,-0.844655 -1.064816,-1.241313 0,0 -0.363163,0.269076 -0.363163,0.269076 v 0 c 0.357713,0.392835 0.731846,0.779098 1.013565,1.256757 0,0 0.414414,-0.28452 0.414414,-0.28452 z" />
    <path
       style="fill:#000000;fill-opacity:1;fill-rule:nonzero;stroke:none;stroke-width:0.105125"
       id="path90"
       d="m 69.6993,28.69661 c -0.0031,-0.343864 -0.01924,-0.687232 -0.03255,-1.030726 0,0 -0.422584,0.247288 -0.422584,0.247288 v 0 c 0.01621,0.345071 0.03228,0.690588 0.01801,1.036187 0,0 0.437119,-0.252749 0.437119,-0.252749 z" />
    <path
       style="fill:#000000;fill-opacity:1;fill-rule:nonzero;stroke:none;stroke-width:0.0986833"
       id="path92"
       d="m 71.730819,27.991894 c 0.0046,-0.492993 0.04457,-0.98595 0.08161,-1.477568 0.02284,-0.287046 0.047,-0.573984 0.07063,-0.860966 0,0 -0.421,0.210795 -0.421,0.210795 v 0 c -0.0166,0.284484 -0.034,0.568924 -0.05549,0.853091 -0.03851,0.499133 -0.09016,0.997822 -0.113685,1.497789 0,0 0.437939,-0.223141 0.437939,-0.223141 z" />
    <path
       style="fill:#000000;fill-opacity:1;fill-rule:nonzero;stroke:none;stroke-width:0.101649"
       id="path94"
       d="m 73.249344,27.787551 c 0.219411,-0.461049 0.435526,-0.923825 0.647789,-1.388625 0.136087,-0.319252 0.266044,-0.641227 0.381956,-0.969315 0,0 -0.430895,0.212942 -0.430895,0.212942 v 0 c -0.11136,0.325483 -0.235882,0.645488 -0.3732,0.959707 -0.214566,0.470753 -0.430399,0.941678 -0.674922,1.395943 0,0 0.449272,-0.210652 0.449272,-0.210652 z" />
    <path
       style="fill:#000000;fill-opacity:1;fill-rule:nonzero;stroke:none;stroke-width:0.103048"
       id="path96"
       d="m 75.509096,27.67791 c 0.155091,-0.186024 0.271139,-0.408354 0.402274,-0.614954 0.168193,-0.241801 0.378819,-0.441137 0.584037,-0.643834 0,0 -0.446443,0.199043 -0.446443,0.199043 v 0 c -0.204631,0.205184 -0.412045,0.410174 -0.578815,0.654396 -0.131525,0.208742 -0.250383,0.432696 -0.416922,0.611074 0,0 0.455869,-0.205725 0.455869,-0.205725 z" />
    <path
       style="fill:#000000;fill-opacity:1;fill-rule:nonzero;stroke:none;stroke-width:0.103273"
       id="path100"
       d="m 74.353778,27.632556 c 0.230041,-0.279485 0.446885,-0.570654 0.652466,-0.872047 0.156437,-0.220365 0.282931,-0.462308 0.406743,-0.705374 0,0 -0.439763,0.215684 -0.439763,0.215684 v 0 c -0.118644,0.240851 -0.24476,0.477358 -0.399164,0.693488 -0.211706,0.304019 -0.432004,0.600935 -0.676189,0.874755 0,0 0.455907,-0.206506 0.455907,-0.206506 z" />
    <path
       style="fill:#000000;fill-opacity:1;fill-rule:nonzero;stroke:none;stroke-width:0.112502"
       id="path102"
       d="m 77.153777,27.950956 c 0.142363,-0.248691 0.288664,-0.493413 0.433657,-0.739512 0.06061,-0.10231 0.109209,-0.220367 0.186644,-0.303394 0,0 -0.456339,0.245079 -0.456339,0.245079 v 0 c -0.06368,0.09704 -0.116439,0.204823 -0.175103,0.306894 -0.14529,0.248701 -0.290619,0.497554 -0.441735,0.740319 0,0 0.452876,-0.249386 0.452876,-0.249386 z" />
    <path
       style="fill:#000000;fill-opacity:1;fill-rule:nonzero;stroke:none;stroke-width:0.11015"
       id="path104"
       d="m 76.574548,27.775915 c 0.052,-0.196911 0.136726,-0.370652 0.240826,-0.530566 0.08907,-0.126101 0.161805,-0.267245 0.238726,-0.404556 0,0 -0.448408,0.243635 -0.448408,0.243635 v 0 c -0.07405,0.137624 -0.15,0.273506 -0.237019,0.399172 -0.103204,0.167701 -0.182628,0.350123 -0.242511,0.54823 0,0 0.448386,-0.255915 0.448386,-0.255915 z" />
    <path
       style="fill:#000000;fill-opacity:1;fill-rule:nonzero;stroke:none;stroke-width:0.112949"
       id="path106"
       d="m 70.925049,28.161178 c 0.02269,-0.423632 0.01148,-0.847931 0.0053,-1.271807 -0.01339,-0.204475 -0.0053,-0.107243 -0.02325,-0.291754 0,0 -0.519637,0.242319 -0.519637,0.242319 v 0 c 0.02158,0.180215 0.01174,0.08526 0.02853,0.284935 0.0145,0.423924 0.03189,0.850143 -0.02359,1.272403 0,0 0.532605,-0.236096 0.532605,-0.236096 z" />
    <path
       style="fill:#000000;fill-opacity:1;fill-rule:nonzero;stroke:none;stroke-width:0.102637"
       id="path110"
       d="m 72.676367,27.835695 c 8.95e-4,-0.248205 0.05142,-0.482888 0.132087,-0.713752 0.102581,-0.195712 0.160549,-0.397824 0.187319,-0.619522 0.02751,-0.17601 0.01151,-0.351379 -0.0067,-0.52698 -0.01408,-0.135684 -0.01759,-0.272237 -0.01968,-0.408637 -7.08e-4,-0.09261 8.96e-4,-0.04825 -0.0042,-0.133111 0,0 -0.436783,0.244773 -0.436783,0.244773 v 0 c 0.0053,0.08153 0.0035,0.03824 0.0046,0.129906 0.0023,0.138173 0.0055,0.276433 0.02108,0.413776 0.01921,0.170688 0.03327,0.341137 0.0057,0.51227 -0.03076,0.21643 -0.09908,0.412991 -0.189804,0.608699 -0.07686,0.236949 -0.121881,0.477608 -0.13551,0.728615 0,0 0.441924,-0.236037 0.441924,-0.236037 z" />
    <path
       style="fill:#000000;fill-opacity:1;fill-rule:nonzero;stroke:none;stroke-width:0.0986833"
       id="path172"
       d="m 78.616888,45.366276 c 0.326454,-0.0057 0.650768,0.0526 0.97262,0.09939 0.579821,0.0843 0.21109,0.03284 0.790991,0.111598 0.664541,0.08514 1.333524,0.116308 2.002472,0.139565 0.426284,0.02393 0.851691,-0.007 1.276129,-0.04349 0.320049,-0.03577 0.64048,-0.06059 0.96252,-0.06338 0.24537,0.0023 0.490634,0.01046 0.735995,0.01332 0.07619,1.97e-4 0.152301,0.002 0.228383,0.0058 0,0 0.190057,-0.13705 0.190057,-0.13705 v 0 c -0.07876,-0.0017 -0.1575,-0.0015 -0.236283,-0.0011 -0.248416,0.0031 -0.496742,-0.0074 -0.745174,-0.0068 -0.326725,0.0017 -0.651463,0.0287 -0.975492,0.07083 -0.426806,0.03847 -0.855026,0.06521 -1.283824,0.05179 -0.159319,-0.0019 -0.407695,-0.0043 -0.562674,-0.0089 -0.490026,-0.01452 -0.978917,-0.05443 -1.465969,-0.109609 -0.368073,-0.05008 -0.418961,-0.05387 -0.784074,-0.115967 -0.303883,-0.05168 -0.606209,-0.121652 -0.914011,-0.146343 0,0 -0.191666,0.140386 -0.191666,0.140386 z" />
    <path
       style="fill:#000000;fill-opacity:1;fill-rule:nonzero;stroke:none;stroke-width:0.0986833"
       id="path174"
       d="m 78.083195,44.675751 c 0.04833,0.01547 0.111372,0.03638 0.158414,0.04716 0.100515,0.02303 0.250805,0.04528 0.347597,0.05883 0.140575,0.01967 0.397901,0.05065 0.532899,0.06725 0.977361,0.10718 1.956361,0.199334 2.935674,0.286714 0.291635,0.0199 0.583209,0.05459 0.876013,0.05289 0.171083,-10e-4 0.342274,-0.01903 0.512921,-0.02968 0.229924,-0.01294 0.459845,-0.01847 0.690082,-0.01549 0.192034,0.0072 0.384011,0.01555 0.576078,0.02199 0.122611,0.0033 0.245122,-0.0028 0.36773,-7.08e-4 0.113186,0.0046 0.226318,-0.0023 0.339202,-0.0099 0.06975,-0.0042 0.139719,-0.01105 0.209477,-0.0039 0.0022,4.1e-4 0.0046,7.83e-4 0.0068,0.0012 0,0 0.202481,-0.141758 0.202481,-0.141758 v 0 c -0.0034,-5.96e-4 -0.0068,-0.0012 -0.01011,-0.0018 -0.07259,-0.0044 -0.145105,-0.0012 -0.217515,0.0052 -0.113022,0.009 -0.226228,0.01812 -0.339727,0.01288 -0.124321,-0.0021 -0.248349,0.0016 -0.372639,0.0044 -0.193544,-0.0035 -0.386894,-0.01201 -0.580326,-0.01931 -0.234019,-0.0025 -0.46742,0.002 -0.700827,0.02124 -0.175403,0.01219 -0.350197,0.03372 -0.525931,0.0409 -0.306843,0.01253 -0.613739,-0.0051 -0.920152,-0.01954 -0.440462,-0.02838 -0.547874,-0.03236 -1.003305,-0.0748 -0.634806,-0.05914 -1.267117,-0.141736 -1.897668,-0.235455 -0.149917,-0.02185 -0.363241,-0.05166 -0.515692,-0.07845 -0.07877,-0.01384 -0.241004,-0.04559 -0.326347,-0.06997 -0.05925,-0.01693 -0.08984,-0.03189 -0.142191,-0.0549 0,0 -0.202929,0.134804 -0.202929,0.134804 z" />
    <path
       style="fill:#000000;fill-opacity:1;fill-rule:nonzero;stroke:none;stroke-width:0.0986833"
       id="path176"
       d="m 78.070875,44.253421 c 0.150823,2.95e-4 0.30128,0.01055 0.451596,0.02187 0.03989,0.0032 0.07979,0.0064 0.119677,0.0096 0.102268,0.0082 0.227242,0.01715 0.327697,0.02994 0.211562,0.02693 0.420724,0.07 0.629737,0.111549 0.443194,0.09751 0.896216,0.134572 1.34862,0.154417 0.382898,0.0094 0.76607,0.01151 1.14909,0.01083 0.367818,-0.0072 0.735677,-0.0034 1.103508,-0.0059 0.280205,-0.0024 0.560383,0.0035 0.840241,0.01728 0.03977,0.0024 0.07957,0.0044 0.119299,0.0073 0.115037,0.0085 0.228857,0.02207 0.344402,0.02332 0.109673,0.0012 0.219354,-0.0022 0.329034,-0.0029 0.281331,-0.003 0.562505,0.0052 0.843572,0.01624 0.07309,0.0034 0.146194,0.0064 0.219309,0.0092 0,0 0.194376,-0.140672 0.194376,-0.140672 v 0 c -0.07675,-6e-6 -0.15351,-4.84e-4 -0.23026,-0.0011 -0.286132,-0.003 -0.572255,-0.0062 -0.858405,-0.0061 -0.10651,-10e-4 -0.21307,4.85e-4 -0.319535,-0.0028 -0.154236,-0.0047 -0.307667,-0.02386 -0.461679,-0.0321 -0.28346,-0.01236 -0.567354,-0.01164 -0.851035,-0.01087 -0.370554,0.0023 -0.741007,0.0059 -1.111529,0.01201 -0.38239,-0.0035 -0.764744,-0.0073 -1.147127,-0.01142 -0.453532,-0.01395 -0.90719,-0.04612 -1.350595,-0.149077 -0.349745,-0.07148 -0.700127,-0.144498 -1.05717,-0.167963 -0.144301,-0.01459 -0.289098,-0.02312 -0.433277,-0.0376 0,0 -0.199546,0.144978 -0.199546,0.144978 z" />
    <path
       style="fill:#000000;fill-opacity:1;fill-rule:nonzero;stroke:none;stroke-width:0.0986833"
       id="path178"
       d="m 78.035246,43.7287 c 0.251563,0.05847 0.507422,0.0944 0.762562,0.132944 0.564312,0.08376 1.133292,0.131332 1.702051,0.172473 0.550088,0.04397 1.101833,0.05639 1.652779,0.08428 0.264769,0.01714 0.528907,0.04337 0.793067,0.06809 0.163377,0.01098 0.322126,0.05191 0.482084,0.08351 0.09928,0.01962 0.193704,0.03361 0.293684,0.04947 0.258355,0.03651 0.518289,0.05783 0.778886,0.06838 0.177988,0.0071 0.356094,-0.0018 0.534092,-0.0049 0.129579,-0.0015 0.259039,-0.0037 0.388524,-0.0087 0.09987,-0.0045 0.199657,-0.0076 0.299543,-0.0029 0.0384,0.0017 0.07703,0.0021 0.114679,0.01046 0,0 0.201582,-0.139322 0.201582,-0.139322 v 0 c -0.04047,-0.01031 -0.0822,-0.0096 -0.123762,-0.0096 -0.100516,-0.0046 -0.200942,-0.0054 -0.301426,0.0016 -0.130973,0.0067 -0.261963,0.01142 -0.393119,0.01267 -0.179326,0.0058 -0.358797,0.01247 -0.538235,0.0096 -0.262847,-0.0067 -0.525836,-0.02117 -0.78619,-0.05978 -0.12131,-0.01976 -0.170147,-0.02644 -0.289555,-0.05085 -0.159204,-0.03254 -0.316711,-0.0788 -0.479693,-0.08858 -0.270448,-0.02372 -0.540997,-0.04761 -0.812498,-0.05545 -0.559611,-0.01761 -1.119901,-0.02138 -1.678414,-0.06507 -0.560125,-0.04618 -1.120399,-0.102135 -1.675772,-0.189195 -0.242203,-0.04258 -0.486278,-0.08153 -0.721153,-0.156362 0,0 -0.203716,0.137375 -0.203716,0.137375 z" />
    <path
       style="fill:#000000;fill-opacity:1;fill-rule:nonzero;stroke:none;stroke-width:0.0986833"
       id="path180"
       d="m 78.055788,43.451685 c 0.126432,0.05346 0.265907,0.06189 0.400496,0.07963 0.4441,0.06136 0.885046,0.142687 1.328635,0.207641 0.469861,0.06524 0.942791,0.102438 1.416166,0.129424 0.341789,0.01948 0.684038,0.02808 1.02618,0.03856 0.245377,-0.0036 0.489855,-1.98e-4 0.73445,0.02066 0.227743,0.02341 0.453165,0.06346 0.680448,0.09055 0.297869,0.04952 0.598636,0.03225 0.898316,0.01577 0.281358,-0.01975 0.563517,-0.0179 0.845348,-0.02346 0.187076,-0.0049 0.373906,-0.01585 0.56067,-0.02742 0.07526,-0.006 0.151309,-0.0067 0.225608,-0.02106 0,0 0.192363,-0.147335 0.192363,-0.147335 v 0 c -0.07456,0.02421 -0.155035,0.02127 -0.232167,0.03138 -0.189165,0.01511 -0.37874,0.0261 -0.568323,0.03436 -0.284881,0.0078 -0.570062,0.01 -0.854488,0.02934 -0.296444,0.01593 -0.594812,0.03161 -0.889273,-0.01754 -0.226608,-0.03039 -0.451747,-0.07221 -0.679712,-0.09219 -0.245134,-0.02041 -0.490711,-0.02988 -0.736709,-0.02087 -0.345942,-9.7e-4 -0.691855,-0.0094 -1.037256,-0.02954 -0.478755,-0.02649 -0.958929,-0.04155 -1.433739,-0.114714 -0.09415,-0.01469 -0.188511,-0.02814 -0.282461,-0.04409 -0.338797,-0.05749 -0.674499,-0.13245 -1.013914,-0.186367 -0.126118,-0.02059 -0.257647,-0.03219 -0.374544,-0.08764 0,0 -0.206094,0.134907 -0.206094,0.134907 z" />
    <path
       style="fill:#000000;fill-opacity:1;fill-rule:nonzero;stroke:none;stroke-width:0.0894036"
       id="path182"
       d="m 78.492794,43.060803 c 0.262675,0.0474 0.524848,0.09877 0.787268,0.148203 0.486548,0.09355 0.978408,0.131444 1.469227,0.174003 0.59739,0.03761 1.195257,0.0629 1.792668,0.100121 0.237978,0.01896 0.475746,0.03851 0.714155,0.04748 0.184164,0.0053 0.368335,0.01142 0.552092,0.02768 0.143945,0.02015 0.288653,0.02873 0.433162,0.04035 0.139398,0.01288 0.278981,0.0227 0.418626,0.03061 0.0882,0.0078 0.176059,0.02036 0.264026,0.03133 0.07821,0.0068 0.155769,0.02257 0.234253,0.0235 0.09342,-0.0034 0.117282,-0.0035 0.200481,-0.148402 0.01264,-0.02203 -0.04379,0.0068 -0.06575,0.0094 -0.03431,0.0041 -0.06867,0.0071 -0.103013,0.01072 -0.03773,0.0028 -0.07547,0.0056 -0.113201,0.0083 0,0 -0.143354,0.128303 -0.143354,0.128303 v 0 c 0.03696,-0.002 0.07392,-0.004 0.110883,-0.006 0.03196,-0.0013 0.06395,-0.0026 0.09592,-0.0039 0.01906,-7.84e-4 0.04027,0.0086 0.05718,-0.0021 0.331902,-0.210933 0.212025,-0.145593 0.120367,-0.13741 -0.07963,4.85e-4 -0.158567,-0.01016 -0.237924,-0.01746 -0.08794,-0.01042 -0.175,-0.03077 -0.263384,-0.03388 -0.141883,-0.0026 -0.283719,-0.0093 -0.425169,-0.02356 -0.14443,-0.01566 -0.288991,-0.02515 -0.433482,-0.04 -0.185208,-0.01971 -0.37105,-0.01901 -0.556799,-0.0248 -0.245186,-0.01109 -0.490278,-0.0271 -0.735699,-0.02854 -0.60146,-0.01337 -1.202997,-0.03269 -1.802917,-0.09027 -0.485393,-0.04628 -0.972579,-0.08545 -1.452921,-0.186088 -0.251548,-0.05421 -0.504402,-0.103567 -0.752867,-0.176315 0,0 -0.163822,0.138764 -0.163822,0.138764 z" />
    <path
       style="fill:#000000;fill-opacity:1;fill-rule:nonzero;stroke:none;stroke-width:0.0986833"
       id="path186"
       d="m 77.779493,45.973647 c 0.288138,0.06313 0.577343,0.122596 0.865256,0.187427 0.680209,0.132444 1.353453,0.304109 2.037946,0.414544 0.101791,0.01642 0.20419,0.0288 0.306286,0.0432 0.09814,0.0095 0.196096,0.02126 0.294424,0.02863 0.187461,0.01405 0.467904,0.02277 0.652727,0.02877 0.304391,0.0099 0.608695,0.01497 0.913207,0.01889 0.406352,0.0039 0.812611,0.01427 1.218974,0.017 0.253727,0.0032 0.506891,-0.01302 0.759771,-0.03127 0.142823,-0.0077 0.285155,-0.02109 0.426877,-0.04023 0.09774,-0.01376 0.19532,-0.02869 0.292583,-0.04546 0.02305,-0.003 0.04603,-0.0063 0.06911,-0.0089 0.04494,-0.005 0.08758,-0.0086 0.132674,-0.01 0.01604,-4.84e-4 0.03215,-7.83e-4 0.0482,-9.8e-5 0.0079,2.96e-4 0.01626,0.0061 0.02361,0.0031 0.0046,-0.0018 -0.0085,-0.005 -0.01272,-0.0075 -0.0065,-2.96e-4 -0.0129,-7.09e-4 -0.01939,-0.001 0,0 0.228276,-0.08828 0.228276,-0.08828 v 0 c 0.0042,-0.0069 0.0084,-0.01373 0.01264,-0.02059 -0.0037,-0.0078 -0.0037,-0.0189 -0.011,-0.02351 -0.0061,-0.0038 -0.0796,-9.7e-4 -0.08087,-8.95e-4 -0.06718,0.0029 -0.134054,0.0101 -0.201041,0.01561 -0.09857,0.01261 -0.195785,0.03443 -0.294418,0.04701 -0.143401,0.02208 -0.288,0.03514 -0.432613,0.04634 -0.257316,0.02211 -0.51482,0.04424 -0.773374,0.04348 -0.413622,-0.0012 -0.827251,-0.0049 -1.240872,-10e-4 -0.621827,-0.0015 -1.24459,-0.0083 -1.863847,-0.07109 -0.104082,-0.01274 -0.208436,-0.02344 -0.312249,-0.03822 -0.686013,-0.09766 -1.366306,-0.240232 -2.036872,-0.413592 -0.266364,-0.07769 -0.534176,-0.151561 -0.800075,-0.230364 0,0 -0.203247,0.138032 -0.203247,0.138032 z" />
    <path
       style="fill:#000000;fill-opacity:1;fill-rule:nonzero;stroke:none;stroke-width:0.0986833"
       id="path188"
       d="m 78.142897,45.641972 c 0.121262,0.0297 0.245438,0.04628 0.368598,0.0659 0.507729,0.07589 1.001049,0.221935 1.499839,0.339647 0.07269,0.01548 0.145046,0.03261 0.218065,0.04645 0.08893,0.01685 0.17845,0.03039 0.267674,0.0456 0.380369,0.06483 0.761608,0.124169 1.143462,0.179582 0.372149,0.05045 0.746036,0.08602 1.118916,0.130451 0.284551,0.03109 0.571193,0.03089 0.857063,0.03259 0.167551,-0.0056 0.333383,0.01909 0.499861,0.03232 0.144967,0.01398 0.290412,0.0067 0.435476,-5.97e-4 0.163036,-0.0023 0.320834,-0.04226 0.479601,-0.07429 0.118088,-0.02092 0.236455,-0.04009 0.354539,-0.06108 0.07609,-0.01319 0.149383,-0.03911 0.226358,-0.04714 0.02092,2.96e-4 0.01186,-5.97e-4 0.02723,0.0018 0,0 0.202619,-0.140214 0.202619,-0.140214 v 0 c -0.02036,-0.0059 -0.0088,-0.0035 -0.03484,-0.0058 -0.07915,0.0056 -0.154337,0.03202 -0.231629,0.04824 -0.120537,0.02271 -0.241329,0.044 -0.361964,0.06619 -0.157783,0.0317 -0.314656,0.07151 -0.476401,0.07617 -0.143636,0.0071 -0.28763,0.01361 -0.431206,0.0012 -0.170755,-0.01325 -0.341396,-0.03221 -0.513038,-0.02488 -0.28763,-0.001 -0.575705,0.0031 -0.862339,-0.026 -0.176492,-0.01832 -0.352671,-0.03953 -0.529157,-0.0578 -0.301065,-0.03117 -0.0562,-0.0032 -0.37559,-0.0335 -0.07816,-0.0074 -0.156177,-0.01624 -0.234265,-0.02435 -0.544243,-0.06839 -1.084907,-0.161637 -1.62166,-0.274781 -0.495199,-0.11145 -0.986633,-0.238059 -1.480809,-0.353707 -0.114456,-0.02688 -0.230413,-0.04921 -0.343517,-0.08111 0,0 -0.202868,0.139206 -0.202868,0.139206 z" />
    <path
       style="fill:#000000;fill-opacity:1;fill-rule:nonzero;stroke:none;stroke-width:0.0986833"
       id="path190"
       d="m 78.259381,45.383717 c 0.04403,0.05817 0.111127,0.0773 0.177077,0.100969 0.181431,0.06224 0.36608,0.114446 0.549425,0.170647 0.151007,0.04992 0.302783,0.09483 0.460921,0.113853 0.148334,0.01261 0.297004,0.02172 0.445659,0.0298 0.151351,0.01154 0.303091,0.01805 0.454879,0.01867 0.120328,-0.0055 0.239411,-0.0023 0.356886,0.02481 0.08029,0.02727 0.162993,0.04234 0.24676,0.05381 0.07424,0.006 0.147628,0.01771 0.22077,0.03129 0.06349,0.01156 0.126505,0.0255 0.189837,0.03787 0.173463,0.02238 0.348707,0.02981 0.5232,0.04096 0.191852,0.01214 0.381747,0.04277 0.573252,0.05848 0.110553,0.0047 0.220469,0.01676 0.329359,0.03619 0.234183,0.01279 0.469452,0.0031 0.70371,-0.0054 0.197196,-0.0059 0.394014,-0.01745 0.589867,-0.04127 0.152707,-0.02095 0.305425,-0.04171 0.458542,-0.05939 0.134156,-0.01427 0.268023,-0.03084 0.402424,-0.04273 0.109924,-0.01435 0.218094,0.0036 0.327174,0.01387 0.148914,0.01803 0.29807,0.01554 0.447193,0.0034 0.0774,-0.0086 0.04013,-0.0042 0.111814,-0.01324 0,0 0.189519,-0.14173 0.189519,-0.14173 v 0 c -0.07319,0.01104 -0.03528,0.0056 -0.113753,0.01611 -0.148198,0.01449 -0.296549,0.02099 -0.44475,4.85e-4 -0.05238,-0.0065 -0.105981,-0.01876 -0.158614,-0.02268 -0.05742,-0.0043 -0.115258,0.0048 -0.172547,0.006 -0.133155,0.01211 -0.26624,0.02622 -0.399178,0.03925 -0.15548,0.02146 -0.310834,0.0437 -0.466279,0.06545 -0.198266,0.02198 -0.396994,0.03945 -0.596341,0.04812 -0.227552,0.01038 -0.456178,0.01728 -0.683417,-0.0029 -0.110795,-0.02097 -0.223408,-0.03017 -0.33602,-0.03458 -0.195056,-0.01306 -0.38922,-0.03614 -0.584161,-0.05073 -0.168521,-0.0137 -0.337234,-0.02745 -0.504761,-0.05054 -0.06256,-0.01251 -0.12419,-0.02913 -0.186973,-0.04061 -0.07484,-0.01179 -0.14968,-0.02309 -0.225281,-0.02913 -0.08325,-0.01132 -0.165919,-0.02561 -0.246035,-0.05165 -0.02718,-0.0063 -0.07487,-0.01796 -0.101971,-0.02152 -0.08714,-0.01143 -0.175894,-0.0048 -0.263346,-0.0039 -0.151405,0.0016 -0.302498,-0.0071 -0.453474,-0.01807 -0.147903,-0.0077 -0.295944,-0.01553 -0.443375,-0.02974 -0.159933,-0.01683 -0.315135,-0.05586 -0.468697,-0.103321 -0.180242,-0.05515 -0.359644,-0.113736 -0.537223,-0.176918 -0.05783,-0.02414 -0.122413,-0.04107 -0.159496,-0.09531 0,0 -0.212576,0.12529 -0.212576,0.12529 z" />
    <path
       id="path214"
       style="fill:#000000;fill-opacity:1;fill-rule:nonzero;stroke:none;stroke-width:0.0986833"
       d="m 85.772151,42.060362 c -0.892491,0.05409 -1.875982,0.214483 -2.512513,0.896027 0.168728,0.882736 1.173504,0.223316 1.589693,0.345702 0.410766,0.614853 1.654112,-0.365916 1.505697,0.780393 0.495884,0.64035 0.374133,1.651581 -0.354094,2.127014 -0.274085,0.06679 -1.248815,0.476269 -0.423449,0.265793 0.86216,-0.252959 1.490473,-1.107202 1.342823,-2.017809 -0.52561,-0.133358 -0.21081,-1.482033 -1.02433,-1.147248 -0.471878,0.33181 -1.297232,-0.452378 -0.353197,-0.355701 0.535067,-0.148481 1.00035,0.06357 1.4617,0.229543 -0.460316,-0.617352 -1.422081,-0.459132 -2.039144,-0.178897 -0.366037,0.290083 -1.595875,0.42088 -1.324074,-0.224373 0.956514,-0.573249 2.206705,-0.752191 3.241654,-0.293909 0.273522,0.698127 1.27345,1.074292 1.068145,1.901683 -0.156452,0.698098 0.136741,1.366486 0.510322,1.941406 0.330118,0.837332 -0.07576,1.598122 -0.421945,2.33468 -0.426178,1.18195 -0.905837,2.395191 -1.873249,3.248895 -1.139657,1.133879 -2.80687,1.284703 -4.325861,1.383613 -1.455503,0.174256 -2.914204,0.0042 -4.353473,-0.2196 -1.620927,-0.159375 -3.592532,-0.08441 -4.966264,-1.023873 -1.286924,-0.829944 -3.385811,-1.009106 -3.506839,-2.614196 -0.04852,-0.288138 -0.598433,0.539937 -0.795375,0.632426 0.150209,1.179052 1.858991,1.441439 2.811466,2.162123 1.235452,1.054796 3.293845,1.21137 4.909599,1.416108 1.571294,0.22882 2.849678,0.287307 4.447169,0.25057 1.386033,0.01571 2.822552,0.0031 4.101526,-0.60575 1.104212,-0.430076 2.076932,-1.16855 2.820767,-2.085336 0.535389,-1.184836 0.986959,-2.405636 1.496121,-3.601676 0.262807,-1.023816 -0.405373,-1.816743 -0.588725,-2.730312 0.0667,-0.736848 0.0565,-1.433052 -0.632598,-1.875198 -0.321801,-0.81529 -0.990324,-0.94001 -1.811552,-0.942098 z m -15.273434,5.487115 c -0.194154,0.229426 -0.500951,0.662705 -0.695106,0.892131 1.349574,2.022895 3.906468,2.229466 6.129196,3.286783 1.109719,0.396708 2.313841,0.303357 3.466433,0.474741 0.757079,-0.0067 1.52113,-0.04281 2.272149,-0.129641 0.757607,-0.322099 1.54403,-0.596217 2.202807,-1.10477 0.693037,-0.409286 1.304667,-0.930975 1.851341,-1.517982 0.613024,-0.53425 1.140413,-1.176167 1.416602,-1.948721 0.132154,-0.29236 0.244427,-0.59316 0.367379,-0.889426 -0.516316,-0.03715 -0.919369,0.556067 -1.428449,0.715684 -0.708561,0.189416 -1.477758,0.152922 -2.200479,0.07822 -0.441493,0.04539 -1.679587,-0.141899 -0.668426,-0.400323 0.729833,-0.344828 1.580366,-0.0526 2.339313,-0.17345 0.517046,-0.311848 -0.754618,-0.07221 -0.975337,-0.153777 -0.75811,-0.09979 -1.514618,0.22513 -2.115859,0.6572 0.592402,0.329759 1.396858,0.260672 2.073682,0.281826 0.67517,0.03384 1.386576,-0.01177 1.946329,-0.421975 0.246344,-0.14034 1.091222,-0.757323 0.557787,-0.13188 -0.555042,0.83108 -1.122671,1.718133 -2.040777,2.187056 -0.494931,0.590352 -1.218128,0.93916 -1.827864,1.40405 -1.160088,0.685965 -2.533468,1.098849 -3.88524,0.847461 -1.274221,-0.226006 -2.666923,-0.08306 -3.795318,-0.832748 -1.842725,-1.047788 -3.935976,-1.313944 -4.990163,-3.120459 z"
       sodipodi:nodetypes="cccccccccccccccccccccccccccccccccccccccccccccccccccccc" />
    <path
       style="fill:#000000;fill-opacity:1;fill-rule:nonzero;stroke:none;stroke-width:0.0986833"
       id="path327"
       d="m 79.097954,72.774743 c 0.500224,0.169003 1.016742,0.262173 1.537586,0.339413 0.667898,0.11159 1.342604,0.160931 2.019175,0.160074 0.416355,0.02115 0.818857,-0.08661 1.227944,-0.135286 0.45737,-0.01522 0.913767,0.0026 1.368685,-0.05512 0.391633,-0.06754 0.766695,-0.20435 1.149437,-0.30875 0.259305,-0.0613 0.518404,-0.123619 0.778358,-0.182147 l -0.02514,-0.395676 c -0.276275,0.06909 0.237523,-0.05456 0,0 -0.381715,0.09949 -0.753178,0.235214 -1.139718,0.315315 -0.455816,0.07422 -0.9144,0.07196 -1.37528,0.0679 -0.07854,0.0026 -0.157602,-0.0011 -0.235634,0.0082 -0.05738,0.0069 -0.112165,0.02797 -0.168623,0.0403 -0.272855,0.05964 -0.550616,0.09218 -0.829905,0.0986 -0.678021,0.01843 -1.3543,-0.02581 -2.023834,-0.138173 -0.500825,-0.07688 -1.004658,-0.164173 -1.473202,-0.365509 l -0.80985,0.55083 z"
       sodipodi:nodetypes="cccccccccccccccccc" />
    <path
       style="fill:#000000;fill-opacity:1;fill-rule:nonzero;stroke:none;stroke-width:0.0986833"
       id="path329"
       d="m 62.766912,67.162902 c 0.0541,0.561039 0.249811,1.093859 0.379508,1.639595 0.140227,0.804182 0.213484,1.616279 0.418516,2.408161 0.02904,0.08598 0.04645,0.176806 0.08712,0.257932 0.202245,0.403449 0.593661,0.680947 0.980912,0.88344 0.384303,0.171461 0.797362,0.24013 1.214111,0.263198 0.453454,0.02283 0.911116,0.0069 1.36068,0.07885 0.129154,0.02805 0.07025,0.0097 0.177814,0.05116 0,0 0.812,-0.540622 0.812,-0.540622 v 0 c -0.124421,-0.05898 -0.05741,-0.03625 -0.202188,-0.0647 -0.459358,-0.06736 -0.925826,-0.03926 -1.388115,-0.06936 -0.404551,-0.0314 -0.806037,-0.08721 -1.186264,-0.237765 -0.473968,-0.218326 -0.886172,-0.546016 -1.046803,-1.06251 -0.232879,-0.781435 -0.308284,-1.590551 -0.435117,-2.393507 -0.02734,-0.134947 -0.05094,-0.270699 -0.082,-0.404836 -0.09561,-0.412934 -0.244317,-0.821769 -0.219079,-1.25287 0,0 -0.87109,0.443842 -0.87109,0.443842 z" />
    <text
       transform="translate(-13.996551,3.1039456)"
       style="font-style:normal;font-weight:normal;font-size:5.99722px;line-height:1.25;font-family:sans-serif;white-space:pre;shape-inside:url(#rect46);fill:#000000;fill-opacity:1;stroke:none;"
       id="text44"
       xml:space="preserve"><tspan
         x="102.97461"
         y="33.77985"><tspan
           style="font-style:normal;font-variant:normal;font-weight:normal;font-stretch:normal;font-size:5.99722px;font-family:FreeMono;-inkscape-font-specification:FreeMono">I Eat Test Reports
</tspan></tspan><tspan
         x="102.97461"
         y="41.51767"><tspan
           style="font-style:normal;font-variant:normal;font-weight:normal;font-stretch:normal;font-size:5.99722px;font-family:FreeMono;-inkscape-font-specification:FreeMono">  nom nom nom</tspan></tspan></text>
    <text
       style="font-style:normal;font-weight:normal;font-size:10.5833px;line-height:1.25;font-family:sans-serif;white-space:pre;shape-inside:url(#rect52);fill:#000000;fill-opacity:1;stroke:none;"
       id="text50"
       xml:space="preserve" />
  </g>
</svg>
